<?xml version="1.0" encoding="UTF-8"?>
<svg id="Layer_1" data-name="Layer 1" xmlns="http://www.w3.org/2000/svg" viewBox="0 0 1080 1080">
  <defs>
    <style>
      .cls-1 {
        fill: #eb4b4d;
      }

      .cls-2 {
        fill: #213259;
      }
    </style>
  </defs>
  <g>
    <g>
      <path class="cls-1" d="M625.28,695.27v-36.32h5.76v15.99h16.81v-15.99h5.7v36.32h-5.7v-15.2h-16.81v15.2h-5.76Z"/>
      <path class="cls-1" d="M668.91,695.86c-1.78,0-3.35-.32-4.7-.95-1.36-.63-2.41-1.51-3.15-2.64-.75-1.11-1.12-2.44-1.12-3.98,0-1.42,.32-2.71,.95-3.84,.63-1.13,1.62-2.1,2.95-2.87,1.33-.79,3-1.33,5.03-1.67l9.16-1.51v4.34l-8.09,1.42c-1.47,.27-2.54,.72-3.22,1.4-.69,.66-1.03,1.51-1.03,2.55s.38,1.83,1.15,2.46c.76,.63,1.74,.95,2.95,.95,1.49,0,2.8-.34,3.92-.97,1.12-.66,1.99-1.54,2.61-2.62,.62-1.08,.93-2.3,.93-3.64v-6.75c0-1.31-.49-2.37-1.43-3.21-.96-.81-2.24-1.24-3.83-1.24-1.47,0-2.74,.38-3.83,1.15-1.08,.77-1.9,1.74-2.42,2.94l-4.57-2.28c.49-1.29,1.28-2.44,2.38-3.43,1.11-.99,2.39-1.76,3.87-2.33,1.48-.54,3.05-.81,4.71-.81,2.08,0,3.92,.38,5.53,1.17,1.6,.77,2.86,1.85,3.75,3.23,.89,1.38,1.34,2.98,1.34,4.81v17.73h-5.26v-4.77l1.12,.14c-.62,1.06-1.41,1.99-2.37,2.78-.95,.79-2.04,1.38-3.26,1.81-1.22,.43-2.58,.63-4.07,.63Z"/>
      <path class="cls-1" d="M699.42,695.86c-2.7,0-5.06-.68-7.09-2.01-2.03-1.33-3.46-3.12-4.27-5.35l4.25-1.99c.71,1.49,1.69,2.67,2.95,3.55,1.25,.88,2.64,1.31,4.17,1.31,1.3,0,2.36-.29,3.16-.86,.81-.59,1.22-1.4,1.22-2.39,0-.66-.17-1.17-.53-1.58-.36-.41-.8-.75-1.34-1.02-.53-.25-1.07-.45-1.63-.56l-4.15-1.17c-2.28-.66-3.98-1.65-5.09-2.96-1.12-1.31-1.68-2.85-1.68-4.61,0-1.58,.41-2.98,1.22-4.16,.81-1.2,1.93-2.1,3.37-2.76,1.42-.66,3.04-.97,4.82-.97,2.41,0,4.55,.59,6.44,1.76,1.87,1.2,3.21,2.85,3.99,4.97l-4.24,1.99c-.52-1.27-1.34-2.28-2.46-3.03-1.12-.75-2.38-1.11-3.77-1.11-1.21,0-2.17,.27-2.88,.84-.71,.59-1.07,1.31-1.07,2.24,0,.61,.16,1.13,.49,1.51,.33,.41,.75,.75,1.27,.99,.52,.23,1.06,.43,1.62,.61l4.29,1.27c2.17,.61,3.84,1.58,5.01,2.89,1.17,1.31,1.75,2.89,1.75,4.7,0,1.56-.41,2.94-1.24,4.13-.82,1.17-1.97,2.1-3.43,2.78-1.46,.66-3.16,.99-5.12,.99Z"/>
      <path class="cls-1" d="M715.12,665.3v-6.35h5.5v6.35h-5.5Zm0,29.98v-26.36h5.5v26.36h-5.5Z"/>
      <path class="cls-1" d="M727.54,695.27v-36.89h5.5v36.89h-5.5Z"/>
      <path class="cls-1" d="M755.96,695.27v-31.2h-9.66v-5.13h24.86v5.13h-9.5v31.2h-5.7Z"/>
      <path class="cls-1" d="M784.38,695.86c-2.63,0-4.97-.61-6.99-1.83-2.03-1.22-3.61-2.87-4.76-4.97-1.14-2.1-1.71-4.45-1.71-7.05s.58-5.01,1.73-7.07c1.15-2.03,2.71-3.66,4.65-4.86,1.95-1.17,4.16-1.76,6.63-1.76,1.99,0,3.75,.34,5.32,1.02,1.56,.68,2.87,1.63,3.94,2.8,1.07,1.2,1.9,2.55,2.46,4.07,.56,1.54,.86,3.16,.86,4.88,0,.43-.02,.86-.06,1.31-.03,.45-.09,.88-.19,1.27h-21.01v-4.38h17.89l-2.63,2.01c.32-1.6,.21-3.03-.32-4.27-.54-1.24-1.36-2.24-2.44-2.98-1.08-.72-2.36-1.08-3.83-1.08s-2.76,.36-3.9,1.08c-1.14,.75-2.02,1.78-2.63,3.12-.62,1.36-.86,2.98-.73,4.9-.16,1.78,.09,3.34,.76,4.68,.67,1.33,1.6,2.37,2.82,3.12,1.22,.77,2.61,1.13,4.17,1.13s2.95-.36,4.08-1.06c1.12-.72,2-1.65,2.65-2.78l4.48,2.19c-.52,1.22-1.32,2.35-2.42,3.34-1.08,.97-2.38,1.76-3.9,2.33s-3.16,.86-4.95,.86Z"/>
      <path class="cls-1" d="M802.37,705.03v-36.12h5.26v5.44l-.63-1.27c.97-1.49,2.27-2.67,3.9-3.5,1.63-.86,3.48-1.27,5.56-1.27,2.51,0,4.76,.59,6.75,1.81,2,1.2,3.57,2.82,4.72,4.92,1.15,2.08,1.74,4.4,1.74,7s-.59,4.95-1.74,7.03c-1.15,2.08-2.72,3.73-4.7,4.95-1.99,1.22-4.25,1.83-6.78,1.83-2.04,0-3.91-.43-5.58-1.27-1.67-.86-2.97-2.08-3.87-3.66l.87-1.02v15.11h-5.5Zm13.55-14.3c1.56,0,2.94-.36,4.13-1.11,1.21-.75,2.16-1.78,2.86-3.09,.7-1.33,1.05-2.8,1.05-4.47s-.35-3.14-1.05-4.43c-.7-1.31-1.65-2.33-2.86-3.07-1.2-.75-2.58-1.13-4.13-1.13s-2.9,.38-4.12,1.13c-1.22,.75-2.18,1.76-2.88,3.07-.7,1.29-1.05,2.78-1.05,4.43s.35,3.14,1.05,4.47c.7,1.31,1.66,2.35,2.88,3.09,1.22,.75,2.59,1.11,4.12,1.11Z"/>
      <path class="cls-1" d="M843.4,695.86c-1.78,0-3.35-.32-4.7-.95-1.36-.63-2.41-1.51-3.15-2.64-.75-1.11-1.12-2.44-1.12-3.98,0-1.42,.32-2.71,.95-3.84,.63-1.13,1.62-2.1,2.95-2.87,1.33-.79,3-1.33,5.03-1.67l9.16-1.51v4.34l-8.09,1.42c-1.47,.27-2.54,.72-3.22,1.4-.69,.66-1.03,1.51-1.03,2.55s.38,1.83,1.15,2.46c.76,.63,1.74,.95,2.95,.95,1.49,0,2.8-.34,3.92-.97,1.12-.66,1.99-1.54,2.61-2.62,.62-1.08,.93-2.3,.93-3.64v-6.75c0-1.31-.49-2.37-1.43-3.21-.96-.81-2.24-1.24-3.83-1.24-1.47,0-2.74,.38-3.83,1.15-1.08,.77-1.9,1.74-2.42,2.94l-4.57-2.28c.49-1.29,1.28-2.44,2.38-3.43,1.11-.99,2.39-1.76,3.87-2.33,1.48-.54,3.05-.81,4.71-.81,2.08,0,3.92,.38,5.53,1.17,1.6,.77,2.86,1.85,3.75,3.23,.89,1.38,1.34,2.98,1.34,4.81v17.73h-5.26v-4.77l1.12,.14c-.62,1.06-1.41,1.99-2.37,2.78-.95,.79-2.04,1.38-3.26,1.81-1.22,.43-2.58,.63-4.07,.63Z"/>
      <path class="cls-1" d="M875.1,695.57c-2.77,0-4.91-.79-6.44-2.35-1.52-1.56-2.29-3.75-2.29-6.57v-12.76h-4.63v-4.97h.73c1.23,0,2.19-.36,2.88-1.08,.68-.7,1.02-1.69,1.02-2.91v-2.06h5.51v6.05h6v4.97h-6v12.51c0,.93,.15,1.69,.44,2.33,.29,.63,.76,1.11,1.41,1.47,.64,.34,1.49,.5,2.53,.5,.26,0,.55-.02,.88-.05,.33-.02,.63-.07,.93-.09v4.72c-.45,.07-.96,.14-1.51,.2-.55,.05-1.04,.09-1.46,.09Z"/>
    </g>
    <g>
      <path class="cls-1" d="M639.61,755.59c-2.28,0-4.39-.43-6.34-1.29-1.95-.86-3.61-2.06-4.98-3.55-1.36-1.49-2.37-3.21-3.02-5.15l4.87-2.06c.88,2.24,2.17,3.95,3.85,5.17,1.69,1.2,3.65,1.78,5.85,1.78,1.3,0,2.44-.18,3.41-.59,.98-.41,1.74-.99,2.27-1.74,.54-.75,.8-1.6,.8-2.58,0-1.33-.37-2.39-1.12-3.19-.75-.77-1.85-1.4-3.31-1.85l-6.83-2.15c-2.72-.84-4.81-2.12-6.23-3.86-1.43-1.74-2.15-3.77-2.15-6.12,0-2.06,.51-3.84,1.51-5.38,1.01-1.56,2.39-2.76,4.17-3.64s3.8-1.31,6.07-1.31,4.16,.36,5.95,1.13c1.78,.77,3.32,1.81,4.6,3.14,1.29,1.33,2.23,2.89,2.81,4.63l-4.78,2.1c-.72-1.92-1.83-3.39-3.34-4.43-1.51-1.04-3.25-1.56-5.24-1.56-1.2,0-2.26,.2-3.16,.61-.91,.41-1.63,.99-2.12,1.74-.51,.77-.76,1.65-.76,2.67,0,1.17,.37,2.21,1.12,3.12,.75,.9,1.89,1.6,3.41,2.06l6.34,1.99c2.89,.88,5.07,2.15,6.54,3.77,1.46,1.65,2.19,3.68,2.19,6.12,0,2.01-.53,3.82-1.58,5.38-1.06,1.56-2.52,2.78-4.37,3.68-1.85,.88-4,1.33-6.43,1.33Z"/>
      <path class="cls-1" d="M667.78,755.59c-1.99,0-3.73-.45-5.22-1.33-1.49-.9-2.65-2.15-3.49-3.77-.82-1.6-1.24-3.46-1.24-5.58v-16.26h5.51v15.79c0,1.2,.25,2.26,.73,3.16,.49,.9,1.16,1.63,2.04,2.12,.88,.5,1.89,.75,3.03,.75s2.19-.25,3.06-.77c.88-.52,1.57-1.27,2.08-2.19,.5-.95,.76-2.06,.76-3.32v-15.54h5.46v26.36h-5.22v-5.17l.59,.68c-.62,1.63-1.64,2.89-3.07,3.77-1.42,.86-3.11,1.31-5.01,1.31Z"/>
      <path class="cls-1" d="M687.42,755v-26.36h5.26v5.31l-.49-.79c.59-1.72,1.52-2.96,2.82-3.73s2.86-1.13,4.68-1.13h1.62v5.01h-2.29c-1.82,0-3.29,.56-4.42,1.67-1.12,1.13-1.68,2.73-1.68,4.81v15.2h-5.5Z"/>
      <path class="cls-1" d="M713.21,755l-10.33-26.36h6l7.95,21.48h-2.19l7.94-21.48h6.04l-10.38,26.36h-5.03Z"/>
      <path class="cls-1" d="M744.74,755.59c-2.63,0-4.97-.61-6.99-1.83-2.03-1.22-3.61-2.87-4.76-4.97-1.14-2.1-1.71-4.45-1.71-7.05s.58-5.01,1.73-7.07c1.15-2.03,2.71-3.66,4.65-4.86,1.95-1.17,4.16-1.76,6.63-1.76,1.99,0,3.75,.34,5.32,1.02,1.56,.68,2.87,1.63,3.94,2.8,1.07,1.2,1.9,2.55,2.46,4.07,.56,1.54,.86,3.16,.86,4.88,0,.43-.02,.86-.06,1.31-.03,.45-.09,.88-.19,1.27h-21.01v-4.38h17.89l-2.63,2.01c.32-1.6,.21-3.03-.32-4.27-.54-1.24-1.36-2.24-2.44-2.98-1.08-.72-2.36-1.08-3.83-1.08s-2.76,.36-3.9,1.08c-1.14,.75-2.02,1.78-2.63,3.12-.62,1.36-.86,2.98-.73,4.9-.16,1.78,.09,3.34,.76,4.68,.67,1.33,1.6,2.37,2.82,3.12,1.22,.77,2.61,1.13,4.17,1.13s2.95-.36,4.08-1.06c1.12-.72,2-1.65,2.65-2.78l4.48,2.19c-.52,1.22-1.32,2.35-2.42,3.34-1.08,.97-2.38,1.76-3.9,2.33-1.51,.56-3.16,.86-4.95,.86Z"/>
      <path class="cls-1" d="M765.08,765.73c-.66,0-1.29-.07-1.92-.18-.64-.11-1.22-.27-1.74-.5v-4.74c.4,.11,.87,.18,1.41,.27,.55,.09,1.1,.11,1.62,.11,1.52,0,2.65-.32,3.39-.99,.73-.66,1.39-1.67,1.98-3.05l1.75-4-.1,4.63-11.41-28.64h5.91l8.43,21.98h-2l8.39-21.98h5.94l-11.64,29.23c-.62,1.56-1.39,2.94-2.32,4.13-.93,1.17-2.02,2.1-3.26,2.76-1.25,.63-2.72,.97-4.42,.97Z"/>
      <path class="cls-1" d="M797.29,755l12.77-36.32h7.12l12.77,36.32h-6.14l-2.78-8.13h-14.76l-2.84,8.13h-6.14Zm10.63-13.26h11.36l-6.44-19h1.62l-6.54,19Z"/>
      <path class="cls-1" d="M834.2,755v-36.89h5.5v24.71l-2.13-.54,13.2-13.64h6.88l-9.95,10.57,10.38,15.79h-6.34l-9.26-13.98,3.28-.45-7.8,8.29,1.75-3.66v9.8h-5.5Z"/>
      <path class="cls-1" d="M871.73,755.59c-1.99,0-3.73-.45-5.22-1.33-1.49-.9-2.65-2.15-3.49-3.77-.82-1.6-1.24-3.46-1.24-5.58v-16.26h5.51v15.79c0,1.2,.25,2.26,.73,3.16,.49,.9,1.16,1.63,2.04,2.12,.88,.5,1.89,.75,3.03,.75s2.19-.25,3.06-.77c.88-.52,1.57-1.27,2.08-2.19,.5-.95,.76-2.06,.76-3.32v-15.54h5.46v26.36h-5.22v-5.17l.59,.68c-.62,1.63-1.64,2.89-3.07,3.77-1.42,.86-3.11,1.31-5.01,1.31Z"/>
      <path class="cls-1" d="M891.37,755v-26.36h5.26v5.31l-.49-.79c.59-1.72,1.52-2.96,2.82-3.73,1.3-.77,2.86-1.13,4.68-1.13h1.62v5.01h-2.29c-1.82,0-3.29,.56-4.42,1.67-1.12,1.13-1.68,2.73-1.68,4.81v15.2h-5.5Z"/>
      <path class="cls-1" d="M917.4,755.59c-1.78,0-3.35-.32-4.7-.95-1.36-.63-2.41-1.51-3.15-2.64-.75-1.11-1.12-2.44-1.12-3.98,0-1.42,.32-2.71,.95-3.84,.63-1.13,1.62-2.1,2.95-2.87,1.33-.79,3-1.33,5.03-1.67l9.16-1.51v4.34l-8.09,1.42c-1.47,.27-2.54,.72-3.22,1.4-.69,.66-1.03,1.51-1.03,2.55s.38,1.83,1.15,2.46c.76,.63,1.74,.95,2.95,.95,1.49,0,2.8-.34,3.92-.97,1.12-.66,1.99-1.54,2.61-2.62,.62-1.08,.93-2.3,.93-3.64v-6.75c0-1.31-.49-2.37-1.43-3.21-.96-.81-2.24-1.24-3.83-1.24-1.47,0-2.74,.38-3.83,1.15-1.08,.77-1.9,1.74-2.42,2.94l-4.57-2.28c.49-1.29,1.28-2.44,2.38-3.43,1.11-.99,2.39-1.76,3.87-2.33,1.48-.54,3.05-.81,4.71-.81,2.08,0,3.92,.38,5.53,1.17,1.6,.77,2.86,1.85,3.75,3.23,.89,1.38,1.34,2.98,1.34,4.81v17.73h-5.26v-4.77l1.12,.14c-.62,1.06-1.41,1.99-2.37,2.78-.95,.79-2.04,1.38-3.26,1.81-1.22,.43-2.58,.63-4.07,.63Z"/>
      <path class="cls-1" d="M949.08,755.29c-2.77,0-4.91-.79-6.44-2.35-1.52-1.56-2.29-3.75-2.29-6.57v-12.76h-4.63v-4.97h.73c1.23,0,2.19-.36,2.88-1.08,.68-.7,1.02-1.69,1.02-2.91v-2.06h5.51v6.05h6v4.97h-6v12.51c0,.93,.15,1.69,.44,2.33,.29,.63,.76,1.11,1.41,1.47,.64,.34,1.49,.5,2.53,.5,.26,0,.55-.02,.88-.05s.63-.07,.93-.09v4.72c-.45,.07-.96,.14-1.51,.2-.55,.05-1.04,.09-1.46,.09Z"/>
    </g>
  </g>
  <g>
    <g>
      <path class="cls-2" d="M127.95,566.89v-211.98h142.55v38.41h-98.45v48.09h92.76v38.41h-92.76v48.65h98.45v38.41H127.95Z"/>
      <path class="cls-2" d="M292.4,566.89v-155.34h39.83v30.73l-2.27-6.83c3.6-9.28,9.44-16.16,17.49-20.63,8.06-4.45,17.5-6.69,28.31-6.69,11.76,0,22.05,2.48,30.88,7.41,8.82,4.93,15.69,11.81,20.63,20.63,4.93,8.82,7.4,19.1,7.4,30.86v99.86h-42.68v-90.76c0-6.07-1.18-11.28-3.55-15.65-2.37-4.35-5.68-7.78-9.96-10.23s-9.25-3.7-14.93-3.7-10.44,1.25-14.8,3.7c-4.36,2.45-7.73,5.88-10.11,10.23-2.37,4.38-3.55,9.59-3.55,15.65v90.76h-42.67Z"/>
      <path class="cls-2" d="M537.65,568.6c-18.78,0-33.33-5.07-43.67-15.24-10.34-10.14-15.51-24.31-15.51-42.53v-62.31h-26.18v-36.98h1.42c7.97,0,14.09-1.99,18.35-5.97,4.27-3.98,6.4-9.96,6.4-17.92v-11.39h42.68v35.29h36.41v36.98h-36.41v59.46c0,5.33,.95,9.72,2.85,13.24,1.89,3.5,4.83,6.11,8.81,7.83,3.98,1.69,8.91,2.55,14.8,2.55,1.33,0,2.85-.09,4.56-.28,1.7-.19,3.51-.37,5.39-.58v36.14c-2.84,.37-6.07,.76-9.67,1.13-3.61,.37-7.02,.58-10.25,.58Z"/>
      <path class="cls-2" d="M582.61,566.89v-155.34h39.83v37.26l-2.84-5.39c3.4-13.08,9.05-21.95,16.93-26.6,7.87-4.65,17.22-6.97,28.03-6.97h9.1v36.98h-13.37c-10.43,0-18.88,3.2-25.32,9.54-6.46,6.37-9.68,15.33-9.68,26.88v83.66h-42.67Z"/>
      <path class="cls-2" d="M727.06,629.47c-4.56,0-8.97-.37-13.23-1.13-4.27-.76-8.01-1.99-11.24-3.7v-34.99c2.65,.76,5.79,1.41,9.39,1.99,3.6,.58,6.92,.86,9.96,.86,8.35,0,14.32-1.94,17.93-5.83,3.6-3.89,6.54-8.29,8.81-13.22l10.54-24.2-.57,35.56-68.29-173.26h45.81l45.24,123.18h-17.08l107.5-281.94h45.8l-128.82,328.62c-4.18,10.6-9.3,19.52-15.36,26.74-6.08,7.2-12.95,12.55-20.63,16.07-7.69,3.52-16.27,5.26-25.75,5.26Z"/>
    </g>
    <path class="cls-1" d="M766.72,566.89l-61.18-155.34h45.81l36.89,100.43,98.78-259.19h45.8l-123.12,314.1h-42.97Z"/>
  </g>
  <g>
    <path class="cls-2" d="M275.15,806.84c-14.61,0-28.19-2.51-40.72-7.56-12.53-5.03-23.45-12.13-32.75-21.26-9.31-9.13-16.58-19.8-21.79-31.99-5.23-12.17-7.84-25.4-7.84-39.66s2.57-27.51,7.7-39.68c5.13-12.19,12.35-22.79,21.66-31.84,9.3-9.05,20.23-16.1,32.75-21.16,12.53-5.03,26.19-7.56,40.98-7.56s28.45,2.53,40.97,7.56c12.53,5.06,23.45,12.11,32.76,21.16,9.3,9.05,16.52,19.65,21.65,31.84,5.13,12.17,7.7,25.4,7.7,39.68s-2.6,27.48-7.83,39.66c-5.21,12.19-12.49,22.85-21.79,31.99-9.31,9.13-20.23,16.23-32.75,21.26-12.53,5.06-26.1,7.56-40.72,7.56Zm0-36.53c8.87,0,17.1-1.57,24.66-4.69,7.57-3.14,14.23-7.52,19.97-13.19,5.75-5.65,10.18-12.38,13.32-20.22,3.13-7.84,4.69-16.44,4.69-25.83s-1.56-17.97-4.69-25.72c-3.13-7.73-7.57-14.49-13.32-20.22-5.73-5.73-12.39-10.13-19.97-13.19-7.56-3.04-15.79-4.57-24.66-4.57s-17.1,1.53-24.67,4.57c-7.56,3.06-14.22,7.46-19.97,13.19-5.73,5.73-10.17,12.49-13.31,20.22-3.13,7.75-4.69,16.31-4.69,25.72s1.56,17.99,4.69,25.83c3.13,7.84,7.57,14.57,13.31,20.22,5.75,5.67,12.4,10.05,19.97,13.19,7.57,3.12,15.79,4.69,24.67,4.69Zm41.24,56.9l-57.94-101.27h41.76l58.73,101.27h-42.54Z"/>
    <path class="cls-2" d="M499.34,806.84c-13.92,0-26.85-2.51-38.76-7.56-11.92-5.03-22.31-12.09-31.18-21.13-8.88-9.05-15.79-19.67-20.75-31.84-4.96-12.19-7.44-25.49-7.44-39.93s2.44-27.8,7.31-40.08c4.87-12.26,11.75-22.88,20.62-31.84,8.88-8.96,19.26-15.91,31.19-20.88,11.92-4.95,24.93-7.43,39.02-7.43s26.75,2.36,37.98,7.05c11.21,4.69,20.75,10.96,28.58,18.78,7.83,7.84,13.39,16.55,16.71,26.1l-35.76,17.23c-3.31-9.39-9.1-17.18-17.36-23.34-8.26-6.18-18.31-9.28-30.14-9.28s-21.58,2.7-30.28,8.09c-8.7,5.39-15.44,12.83-20.23,22.32-4.78,9.47-7.17,20.58-7.17,33.28s2.39,23.83,7.17,33.39c4.79,9.58,11.53,17.06,20.23,22.45,8.7,5.39,18.8,8.09,30.28,8.09s21.88-3.08,30.14-9.26c8.26-6.18,14.05-13.95,17.36-23.36l35.76,17.23c-3.31,9.58-8.88,18.27-16.71,26.1s-17.36,14.08-28.58,18.8c-11.23,4.69-23.88,7.03-37.98,7.03Z"/>
  </g>
</svg>